# xmcd
#
# Track frame offsets:
#	183
#	20530
#	43870
#	65665
#
# Disc length: 1116 seconds
#
# Revision: 3
# Processed by: cddbd v1.4PL0 Copyright (c) Steve Scherf et al.
# Submitted via: audiograbber 1.80.04
#
DISCID=33045a04
DTITLE=Sheryl Crow - Run Baby Run [CD Single)
DYEAR=1993
DGENRE=Folk
TTITLE0=Run Baby Run
TTITLE1=Leaving Las Vegas
TTITLE2=All By Myself
TTITLE3=Reach Around Jerk
EXTD=
EXTT0=
EXTT1=
EXTT2=
EXTT3=
PLAYORDER=
